<svg width="40" height="40" viewBox="0 0 40 40" fill="none" xmlns="http://www.w3.org/2000/svg">
<rect width="40" height="40" rx="20" fill="white"/>
<path d="M20 20C23.0376 20 25.5 17.5376 25.5 14.5C25.5 11.4624 23.0376 9 20 9C16.9624 9 14.5 11.4624 14.5 14.5C14.5 17.5376 16.9624 20 20 20Z" fill="#E39130"/>
<path d="M30.67 24.9435C29.3104 23.7001 27.6604 22.7078 25.824 22.0291C23.9877 21.3504 22.0047 21 20 21C17.9953 21 16.0123 21.3504 14.176 22.0291C12.3396 22.7078 10.6896 23.7001 9.33 24.9435C9.12008 25.1395 9.00266 25.3936 9 25.6577V29.943C9.00445 30.2246 9.14013 30.4935 9.37768 30.6913C9.61523 30.8891 9.93552 31 10.2692 31H29.7308C30.0674 31 30.3902 30.8871 30.6283 30.6862C30.8663 30.4853 31 30.2128 31 29.9287V25.6435C30.9933 25.3842 30.8761 25.1358 30.67 24.9435Z" fill="#35E651"/>
</svg>
