<svg width="25" height="24" viewBox="0 0 25 24" fill="none" xmlns="http://www.w3.org/2000/svg">
<path d="M9.5 10.5C10.3284 10.5 11 9.82843 11 9C11 8.17157 10.3284 7.5 9.5 7.5C8.67157 7.5 8 8.17157 8 9C8 9.82843 8.67157 10.5 9.5 10.5Z" fill="#35E651"/>
<path d="M15.5 10.5C16.3284 10.5 17 9.82843 17 9C17 8.17157 16.3284 7.5 15.5 7.5C14.6716 7.5 14 8.17157 14 9C14 9.82843 14.6716 10.5 15.5 10.5Z" fill="#35E651"/>
<path d="M12.5 22.5C6.71 22.5 2 17.79 2 12C2 6.21 6.71 1.5 12.5 1.5C18.29 1.5 23 6.21 23 12C23 17.79 18.29 22.5 12.5 22.5ZM12.5 3C7.535 3 3.5 7.035 3.5 12C3.5 16.965 7.535 21 12.5 21C17.465 21 21.5 16.965 21.5 12C21.5 7.035 17.465 3 12.5 3Z" fill="#35E651"/>
<path d="M12.4998 17.25C10.2798 17.25 8.28482 15.84 7.54982 13.755C7.49762 13.572 7.5168 13.376 7.60349 13.2066C7.69018 13.0371 7.83792 12.9069 8.01688 12.8422C8.19585 12.7775 8.39271 12.783 8.56772 12.8578C8.74273 12.9326 8.88286 13.0709 8.95982 13.245C9.21783 13.9778 9.69694 14.6126 10.331 15.0615C10.9651 15.5105 11.7229 15.7516 12.4998 15.7516C13.2768 15.7516 14.0345 15.5105 14.6686 15.0615C15.3027 14.6126 15.7818 13.9778 16.0398 13.245C16.1748 12.855 16.6098 12.645 16.9998 12.795C17.3898 12.93 17.5998 13.365 17.4498 13.755C17.089 14.7789 16.4187 15.6653 15.5319 16.2915C14.645 16.9177 13.5854 17.2526 12.4998 17.25Z" fill="#35E651"/>
</svg>
