<svg width="25" height="24" viewBox="0 0 25 24" fill="none" xmlns="http://www.w3.org/2000/svg">
<path d="M9.5 10.5C10.3284 10.5 11 9.82843 11 9C11 8.17157 10.3284 7.5 9.5 7.5C8.67157 7.5 8 8.17157 8 9C8 9.82843 8.67157 10.5 9.5 10.5Z" fill="#E39130"/>
<path d="M15.5 10.5C16.3284 10.5 17 9.82843 17 9C17 8.17157 16.3284 7.5 15.5 7.5C14.6716 7.5 14 8.17157 14 9C14 9.82843 14.6716 10.5 15.5 10.5Z" fill="#E39130"/>
<path d="M12.5 22.5C6.71 22.5 2 17.79 2 12C2 6.21 6.71 1.5 12.5 1.5C18.29 1.5 23 6.21 23 12C23 17.79 18.29 22.5 12.5 22.5ZM12.5 3C7.535 3 3.5 7.035 3.5 12C3.5 16.965 7.535 21 12.5 21C17.465 21 21.5 16.965 21.5 12C21.5 7.035 17.465 3 12.5 3Z" fill="#E39130"/>
<path d="M16.7456 17.25C16.4306 17.25 16.1456 17.055 16.0406 16.755C15.7826 16.0222 15.3035 15.3875 14.6694 14.9385C14.0353 14.4895 13.2775 14.2484 12.5006 14.2484C11.7236 14.2484 10.9659 14.4895 10.3318 14.9385C9.6977 15.3875 9.2186 16.0222 8.96058 16.755C8.82558 17.145 8.39058 17.355 8.00058 17.205C7.90718 17.1727 7.8212 17.122 7.74773 17.0558C7.67426 16.9897 7.61479 16.9095 7.57284 16.82C7.53089 16.7305 7.50731 16.6335 7.50348 16.5348C7.49966 16.436 7.51567 16.3375 7.55058 16.245C8.28558 14.145 10.2806 12.75 12.5006 12.75C14.7206 12.75 16.7156 14.16 17.4506 16.245C17.4915 16.3582 17.5046 16.4797 17.4887 16.599C17.4728 16.7184 17.4284 16.8321 17.3593 16.9307C17.2901 17.0293 17.1982 17.1098 17.0914 17.1653C16.9846 17.2209 16.866 17.2499 16.7456 17.25Z" fill="#E39130"/>
</svg>
