<svg width="30" height="30" viewBox="0 0 30 30" fill="none" xmlns="http://www.w3.org/2000/svg">
<path d="M28.7869 12.9117L28.7769 12.9067L2.08438 0.13175C1.85986 0.0233199 1.61556 -0.0192051 1.37332 0.0079791C1.13107 0.0351633 0.898449 0.131209 0.69625 0.287524C0.482622 0.449045 0.307145 0.669316 0.185609 0.928518C0.0640733 1.18772 0.000290684 1.47772 3.41257e-07 1.77243V9.94264C0.000119049 10.3455 0.122037 10.7357 0.344741 11.046C0.567445 11.3563 0.876982 11.5672 1.22 11.6424L15.7781 14.7486C15.8353 14.7611 15.887 14.7962 15.9241 14.848C15.9612 14.8997 15.9816 14.9648 15.9816 15.032C15.9816 15.0992 15.9612 15.1642 15.9241 15.216C15.887 15.2677 15.8353 15.3029 15.7781 15.3154L1.22063 18.4215C0.877702 18.4965 0.568183 18.7072 0.34538 19.0172C0.122576 19.3272 0.000437513 19.7171 3.41257e-07 20.1199V28.2915C-0.000165644 28.5729 0.0602214 28.85 0.175743 29.0978C0.291264 29.3457 0.458305 29.5566 0.661875 29.7115C0.90675 29.8993 1.19413 29.9996 1.48813 30C1.69251 29.9998 1.89481 29.9525 2.08313 29.8608L28.775 17.1587L28.7869 17.1522C29.1462 16.9741 29.4523 16.6783 29.6674 16.3014C29.8825 15.9246 29.9972 15.4832 29.9972 15.032C29.9972 14.5807 29.8825 14.1394 29.6674 13.7625C29.4523 13.3857 29.1462 13.0899 28.7869 12.9117Z" fill="white"/>
</svg>
