<svg width="25" height="24" viewBox="0 0 25 24" fill="none" xmlns="http://www.w3.org/2000/svg">
<path d="M12.5 5.5L11.96 6.02C12.03 6.09259 12.1138 6.15032 12.2066 6.18976C12.2994 6.22919 12.3992 6.24952 12.5 6.24952C12.6008 6.24952 12.7006 6.22919 12.7934 6.18976C12.8862 6.15032 12.97 6.09259 13.04 6.02L12.5 5.5ZM9.926 18.322C8.41 17.127 6.753 15.96 5.438 14.48C4.15 13.028 3.25 11.335 3.25 9.137H1.75C1.75 11.803 2.86 13.837 4.317 15.476C5.747 17.086 7.571 18.376 8.997 19.5L9.926 18.322ZM3.25 9.137C3.25 6.987 4.465 5.183 6.124 4.424C7.736 3.687 9.902 3.882 11.96 6.02L13.04 4.981C10.6 2.444 7.764 2.025 5.5 3.06C3.286 4.073 1.75 6.425 1.75 9.137H3.25ZM8.997 19.5C9.51 19.904 10.06 20.334 10.617 20.66C11.174 20.985 11.81 21.25 12.5 21.25V19.75C12.19 19.75 11.826 19.63 11.374 19.365C10.921 19.101 10.452 18.737 9.926 18.322L8.997 19.5ZM16.003 19.5C17.429 18.375 19.253 17.087 20.683 15.476C22.14 13.836 23.25 11.803 23.25 9.137H21.75C21.75 11.335 20.85 13.028 19.562 14.48C18.247 15.96 16.59 17.127 15.074 18.322L16.003 19.5ZM23.25 9.137C23.25 6.425 21.715 4.073 19.5 3.06C17.236 2.025 14.402 2.444 11.96 4.98L13.04 6.02C15.098 3.883 17.264 3.687 18.876 4.424C20.535 5.183 21.75 6.986 21.75 9.137H23.25ZM15.074 18.322C14.548 18.737 14.079 19.101 13.626 19.365C13.174 19.629 12.81 19.75 12.5 19.75V21.25C13.19 21.25 13.826 20.985 14.383 20.66C14.941 20.334 15.49 19.904 16.003 19.5L15.074 18.322Z" fill="#C32135"/>
</svg>
